REM DIRINDEX 1\2,1\3,1\4
REM DIRNAME folder01,folder02,folder03,folder04
TITLE ""
FILE "Track04.mp3" MP3
  TRACK 01 AUDIO
    TITLE "0:"
    INDEX 01 00:00:00
  TRACK 02 AUDIO
    TITLE "4:cjc153_0148"
    INDEX 01 00:00:05
  TRACK 03 AUDIO
    TITLE "0:"
    INDEX 01 00:01:36
  TRACK 04 AUDIO
    TITLE "2:cjc153_0149"
    INDEX 01 00:02:06
  TRACK 05 AUDIO
    TITLE "0:"
    INDEX 01 00:03:08
  TRACK 06 AUDIO
    TITLE "3:cjc153_0150"
    INDEX 01 00:03:33
  TRACK 07 AUDIO
    TITLE "0:"
    INDEX 01 00:04:40
  TRACK 08 AUDIO
    TITLE "2:cjc153_0151"
    INDEX 01 00:05:03
  TRACK 09 AUDIO
    TITLE "0:"
    INDEX 01 00:06:06
  TRACK 10 AUDIO
    TITLE "3:cjc153_0152"
    INDEX 01 00:06:30
  TRACK 11 AUDIO
    TITLE "0:"
    INDEX 01 00:07:35
  TRACK 12 AUDIO
    TITLE "2:cjc153_0153"
    INDEX 01 00:07:74
  TRACK 13 AUDIO
    TITLE "0:"
    INDEX 01 00:08:73
  TRACK 14 AUDIO
    TITLE "3:cjc153_0154"
    INDEX 01 00:09:22
  TRACK 15 AUDIO
    TITLE "0:"
    INDEX 01 00:10:27
  TRACK 16 AUDIO
    TITLE "2:cjc153_0155"
    INDEX 01 00:10:66
  TRACK 17 AUDIO
    TITLE "0:"
    INDEX 01 00:11:66
  TRACK 18 AUDIO
    TITLE "3:cjc153_0156"
    INDEX 01 00:12:16
  TRACK 19 AUDIO
    TITLE "0:"
    INDEX 01 00:13:22
  TRACK 20 AUDIO
    TITLE "2:cjc153_0157"
    INDEX 01 00:13:59
  TRACK 21 AUDIO
    TITLE "0:"
    INDEX 01 00:14:64
  TRACK 22 AUDIO
    TITLE "3:cjc153_0158"
    INDEX 01 00:15:13
  TRACK 23 AUDIO
    TITLE "0:"
    INDEX 01 00:16:24
  TRACK 24 AUDIO
    TITLE "2:cjc153_0159"
    INDEX 01 00:16:57
  TRACK 25 AUDIO
    TITLE "0:"
    INDEX 01 00:17:61
  TRACK 26 AUDIO
    TITLE "3:cjc153_0160"
    INDEX 01 00:18:11
  TRACK 27 AUDIO
    TITLE "0:"
    INDEX 01 00:19:15
  TRACK 28 AUDIO
    TITLE "2:cjc153_0161"
    INDEX 01 00:19:52
  TRACK 29 AUDIO
    TITLE "0:"
    INDEX 01 00:20:63
  TRACK 30 AUDIO
    TITLE "3:cjc153_0162"
    INDEX 01 00:21:13
  TRACK 31 AUDIO
    TITLE "0:"
    INDEX 01 00:22:23
  TRACK 32 AUDIO
    TITLE "2:cjc153_0163"
    INDEX 01 00:22:62
  TRACK 33 AUDIO
    TITLE "0:"
    INDEX 01 00:24:14
  TRACK 34 AUDIO
    TITLE "3:cjc153_0164"
    INDEX 01 00:24:39
  TRACK 35 AUDIO
    TITLE "0:"
    INDEX 01 00:25:64
  TRACK 36 AUDIO
    TITLE "2:cjc153_0165"
    INDEX 01 00:26:28
  TRACK 37 AUDIO
    TITLE "0:"
    INDEX 01 00:27:47
  TRACK 38 AUDIO
    TITLE "3:cjc153_0166"
    INDEX 01 00:27:73
  TRACK 39 AUDIO
    TITLE "0:"
    INDEX 01 00:29:23
  TRACK 40 AUDIO
    TITLE "2:cjc153_0167"
    INDEX 01 00:29:60
  TRACK 41 AUDIO
    TITLE "0:"
    INDEX 01 00:31:16
  TRACK 42 AUDIO
    TITLE "3:cjc153_0168"
    INDEX 01 00:31:47
  TRACK 43 AUDIO
    TITLE "0:"
    INDEX 01 00:33:05
  TRACK 44 AUDIO
    TITLE "2:cjc153_0169"
    INDEX 01 00:33:52
  TRACK 45 AUDIO
    TITLE "0:"
    INDEX 01 00:34:55
  TRACK 46 AUDIO
    TITLE "3:cjc153_0170"
    INDEX 01 00:35:04
  TRACK 47 AUDIO
    TITLE "0:"
    INDEX 01 00:36:13
  TRACK 48 AUDIO
    TITLE "2:cjc153_0171"
    INDEX 01 00:36:50
  TRACK 49 AUDIO
    TITLE "0:"
    INDEX 01 00:37:50
  TRACK 50 AUDIO
    TITLE "3:cjc153_0172"
    INDEX 01 00:38:02
  TRACK 51 AUDIO
    TITLE "0:"
    INDEX 01 00:39:00
  TRACK 52 AUDIO
    TITLE "2:cjc153_0173"
    INDEX 01 00:39:39
  TRACK 53 AUDIO
    TITLE "0:"
    INDEX 01 00:40:32
  TRACK 54 AUDIO
    TITLE "3:cjc153_0174"
    INDEX 01 00:40:56
  TRACK 55 AUDIO
    TITLE "0:"
    INDEX 01 00:41:53
  TRACK 56 AUDIO
    TITLE "2:cjc153_0175"
    INDEX 01 00:42:14
  TRACK 57 AUDIO
    TITLE "0:"
    INDEX 01 00:43:17
  TRACK 58 AUDIO
    TITLE "3:cjc153_0176"
    INDEX 01 00:43:44
  TRACK 59 AUDIO
    TITLE "0:"
    INDEX 01 00:44:52
  TRACK 60 AUDIO
    TITLE "2:cjc153_0177"
    INDEX 01 00:45:16
  TRACK 61 AUDIO
    TITLE "0:"
    INDEX 01 00:46:19
  TRACK 62 AUDIO
    TITLE "3:cjc153_0178"
    INDEX 01 00:46:43
  TRACK 63 AUDIO
    TITLE "0:"
    INDEX 01 00:47:48
  TRACK 64 AUDIO
    TITLE "2:cjc153_0179"
    INDEX 01 00:48:08
  TRACK 65 AUDIO
    TITLE "0:"
    INDEX 01 00:49:12
  TRACK 66 AUDIO
    TITLE "3:cjc153_0180"
    INDEX 01 00:49:39
  TRACK 67 AUDIO
    TITLE "0:"
    INDEX 01 00:50:46
  TRACK 68 AUDIO
    TITLE "2:cjc153_0181"
    INDEX 01 00:51:09
  TRACK 69 AUDIO
    TITLE "0:"
    INDEX 01 00:52:10
  TRACK 70 AUDIO
    TITLE "3:cjc153_0182"
    INDEX 01 00:52:36
  TRACK 71 AUDIO
    TITLE "0:"
    INDEX 01 00:53:41
  TRACK 72 AUDIO
    TITLE "2:cjc153_0183"
    INDEX 01 00:54:03
  TRACK 73 AUDIO
    TITLE "0:"
    INDEX 01 00:55:10
  TRACK 74 AUDIO
    TITLE "3:cjc153_0184"
    INDEX 01 00:55:36
  TRACK 75 AUDIO
    TITLE "0:"
    INDEX 01 00:56:43
  TRACK 76 AUDIO
    TITLE "2:cjc153_0185"
    INDEX 01 00:57:05
  TRACK 77 AUDIO
    TITLE "0:"
    INDEX 01 00:58:24
  TRACK 78 AUDIO
    TITLE "3:cjc153_0186"
    INDEX 01 00:58:48
  TRACK 79 AUDIO
    TITLE "0:"
    INDEX 01 00:59:69
  TRACK 80 AUDIO
    TITLE "2:cjc153_0187"
    INDEX 01 01:00:29
  TRACK 81 AUDIO
    TITLE "0:"
    INDEX 01 01:01:74
  TRACK 82 AUDIO
    TITLE "3:cjc153_0188"
    INDEX 01 01:02:24
  TRACK 83 AUDIO
    TITLE "0:"
    INDEX 01 01:04:07
  TRACK 84 AUDIO
    TITLE "2:cjc153_0189"
    INDEX 01 01:04:47
  TRACK 85 AUDIO
    TITLE "0:"
    INDEX 01 01:05:48
  TRACK 86 AUDIO
    TITLE "3:cjc153_0190"
    INDEX 01 01:06:06
  TRACK 87 AUDIO
    TITLE "0:"
    INDEX 01 01:07:12
  TRACK 88 AUDIO
    TITLE "2:cjc153_0191"
    INDEX 01 01:07:66
  TRACK 89 AUDIO
    TITLE "0:"
    INDEX 01 01:09:10
  TRACK 90 AUDIO
    TITLE "3:cjc153_0192"
    INDEX 01 01:09:36
  TRACK 91 AUDIO
    TITLE "0:"
    INDEX 01 01:10:55
  TRACK 92 AUDIO
    TITLE "2:cjc153_0193"
    INDEX 01 01:11:19
  TRACK 93 AUDIO
    TITLE "0:"
    INDEX 01 01:12:15
  TRACK 94 AUDIO
    TITLE "3:cjc153_0194"
    INDEX 01 01:12:40
  TRACK 95 AUDIO
    TITLE "0:"
    INDEX 01 01:13:40
  TRACK 96 AUDIO
    TITLE "2:cjc153_0195"
    INDEX 01 01:14:04
  TRACK 97 AUDIO
    TITLE "0:"
    INDEX 01 01:15:23
  TRACK 98 AUDIO
    TITLE "3:cjc153_0196"
    INDEX 01 01:15:48
  TRACK 99 AUDIO
    TITLE "0:"
    INDEX 01 01:16:73
  TRACK 100 AUDIO
    TITLE "2:cjc153_0197"
    INDEX 01 01:17:33
  TRACK 101 AUDIO
    TITLE "0:"
    INDEX 01 01:18:41
  TRACK 102 AUDIO
    TITLE "3:cjc153_0198"
    INDEX 01 01:18:66
  TRACK 103 AUDIO
    TITLE "0:"
    INDEX 01 01:20:02
  TRACK 104 AUDIO
    TITLE "2:cjc153_0199"
    INDEX 01 01:20:40
  TRACK 105 AUDIO
    TITLE "0:"
    INDEX 01 01:21:63
  TRACK 106 AUDIO
    TITLE "3:cjc153_0200"
    INDEX 01 01:22:17
  TRACK 107 AUDIO
    TITLE "0:"
    INDEX 01 01:23:38
  TRACK 108 AUDIO
    TITLE "2:cjc153_0201"
    INDEX 01 01:24:00
  TRACK 109 AUDIO
    TITLE "0:"
    INDEX 01 01:25:15
  TRACK 110 AUDIO
    TITLE "3:cjc153_0202"
    INDEX 01 01:25:41
  TRACK 111 AUDIO
    TITLE "0:"
    INDEX 01 01:26:58
  TRACK 112 AUDIO
    TITLE "2:cjc153_0203"
    INDEX 01 01:27:18
  TRACK 113 AUDIO
    TITLE "0:"
    INDEX 01 01:28:16
  TRACK 114 AUDIO
    TITLE "3:cjc153_0204"
    INDEX 01 01:28:39
  TRACK 115 AUDIO
    TITLE "0:"
    INDEX 01 01:29:27
  TRACK 116 AUDIO
    TITLE "2:cjc153_0205"
    INDEX 01 01:30:05
  TRACK 117 AUDIO
    TITLE "0:"
    INDEX 01 01:31:20
  TRACK 118 AUDIO
    TITLE "3:cjc153_0206"
    INDEX 01 01:31:41
  TRACK 119 AUDIO
    TITLE "0:"
    INDEX 01 01:32:62
  TRACK 120 AUDIO
    TITLE "2:cjc153_0207"
    INDEX 01 01:33:23
  TRACK 121 AUDIO
    TITLE "0:"
    INDEX 01 01:34:30
  TRACK 122 AUDIO
    TITLE "3:cjc153_0208"
    INDEX 01 01:34:55
  TRACK 123 AUDIO
    TITLE "0:"
    INDEX 01 01:35:67
  TRACK 124 AUDIO
    TITLE "2:cjc153_0209"
    INDEX 01 01:36:31
  TRACK 125 AUDIO
    TITLE "0:"
    INDEX 01 01:37:44
  TRACK 126 AUDIO
    TITLE "3:cjc153_0210"
    INDEX 01 01:37:68
  TRACK 127 AUDIO
    TITLE "0:"
    INDEX 01 01:39:08
  TRACK 128 AUDIO
    TITLE "2:cjc153_0211"
    INDEX 01 01:39:49
  TRACK 129 AUDIO
    TITLE "0:"
    INDEX 01 01:40:62
  TRACK 130 AUDIO
    TITLE "3:cjc153_0212"
    INDEX 01 01:41:12
  TRACK 131 AUDIO
    TITLE "0:"
    INDEX 01 01:42:31
  TRACK 132 AUDIO
    TITLE "2:cjc153_0213"
    INDEX 01 01:42:69
  TRACK 133 AUDIO
    TITLE "0:"
    INDEX 01 01:43:74
  TRACK 134 AUDIO
    TITLE "3:cjc153_0214"
    INDEX 01 01:44:26
  TRACK 135 AUDIO
    TITLE "0:"
    INDEX 01 01:45:34
  TRACK 136 AUDIO
    TITLE "2:cjc153_0215"
    INDEX 01 01:45:71
  TRACK 137 AUDIO
    TITLE "0:"
    INDEX 01 01:47:15
  TRACK 138 AUDIO
    TITLE "3:cjc153_0216"
    INDEX 01 01:47:40
  TRACK 139 AUDIO
    TITLE "0:"
    INDEX 01 01:48:56
